<?xml version="1.0" encoding="utf-8"?>
<!-- Generator: Adobe Illustrator 26.0.3, SVG Export Plug-In . SVG Version: 6.00 Build 0)  -->
<svg version="1.1" id="Layer_1" xmlns="http://www.w3.org/2000/svg" xmlns:xlink="http://www.w3.org/1999/xlink" x="0px" y="0px"
	 viewBox="0 0 108 107.59" style="enable-background:new 0 0 108 107.59;" xml:space="preserve">
<style type="text/css">
	.st0{fill:#ED732E;}
	.st1{fill:#19282D;}
	.st2{fill:#F09536;}
</style>
<g>
	<polygon class="st0" points="40.63,107.67 73.12,84.36 65.64,82.33 46.96,94.26 28.04,107.67 	"/>
	<polygon class="st0" points="0.24,78.22 0.24,69.4 11.1,74.14 14.29,78.22 12.71,79.96 	"/>
	<polygon class="st0" points="0.24,47.18 0.24,37.13 23.62,51.64 36.71,66.26 33.19,67.18 32.24,66.26 	"/>
	<polygon class="st0" points="17.82,-0.07 26.78,-0.07 49.53,36.44 47.88,37.96 31.93,22.31 29.93,19.45 	"/>
	<polygon class="st0" points="108,43.3 90.85,39.75 89.49,42.06 97.77,47.66 100.27,48.43 108,50.85 	"/>
	<path class="st1" d="M63.17,69.26l-15.02-3.77l-1.55,1l-8.94,7.11l-17.3,4.78l-3.8,0.31l-0.95,1.88c0,0-0.22,1.14-0.21,1.94
		c0.01,0.8,0.04,1.9-1.01,2.03c-1.04,0.13-1.78-2.89-1.69-4.58c0.09-1.69,0.17-3.97,0.17-3.97l2.28-3.86l19.14-6.59l6.12-5.78
		c0,0,3.14-3.28,3.8-5.03c0.66-1.74,2.77-3.78,4.68-6.66c1.91-2.87,5.98-9.95,5.98-9.95s-1.05-0.78-1.48-0.47s-1.76,1.83-1.76,1.83
		l-3.01,2.15l-2,3.81l-1.57,1.97l-0.93-0.55l-2.64-2.41l-0.78-0.7l1.54-1.62l6.23-7.34c0,0,1.52-2.59,4.95-2.22s7.85,0.41,8.82,0.53
		c0.96,0.12,3.22,2.4,4.56,2.95s1.99,0.93,2.6,0.18C70,35.5,68.9,33.42,69.55,31c0.65-2.42,1.29-3.1,2.65-3.39s3.24,0.26,3.6,1.82
		c0.36,1.55-0.28,5.68-1.88,7.3c-1.61,1.62-2.35,1.24-2.86,1.23s-0.24,1.64,0.32,2.17c0.56,0.53,0.81,1.36,3.1,2.07
		c2.29,0.71,4.68,2.21,5.32,1.92c0.64-0.28,2.46-1.52,2.46-1.52l3.17-1.67l1.86-2.06l3-2.21c0,0,0.43,0.07,1.66,1.83
		c1.23,1.76,1.65,2.57,1.65,2.57l-2.74,1.9l-4.68,3.37l-4.87,3.39c0,0-6.14-1.01-7.59-2.07c-1.45-1.06-3.09-0.37-3.09-0.37
		s-0.61,3.17-3.09,6.6c-2.48,3.43-5.56,6.33-5.56,6.33l7.92,4.14l3.23,11.47l-0.3,5.46L75,83.06c0,0,0.08,3.15,1.74,3.98
		c1.66,0.83,1.85,1.06,2.84,0.71c0.99-0.36,2.06,0.67,1.77,1.39c-0.28,0.71-3.8,1.46-6.62,1.46c-2.82,0-5.34-0.12-5.34-0.12
		L69,86.88l-1.78,0.16L63.17,69.26z"/>
	<polygon class="st2" points="75,83.06 13.64,107.67 0.2,107.67 0.24,99.74 73.11,75.84 	"/>
	<path class="st2" d="M0.24,65.88l0-13.23l20.12,25.73c0,0-2.6,0.65-3.24,1.06s-1.51,1.13-1.51,1.13L0.24,65.88z"/>
	<polygon class="st2" points="0.24,29.9 0.24,15.97 46.59,66.49 40.52,71.32 	"/>
	<polygon class="st2" points="0.24,9.79 0.24,-0.08 8.8,-0.05 51.64,39.5 46.62,45.46 	"/>
	<polygon class="st2" points="108,54.06 87.29,38.88 82.26,42.61 108,66.15 	"/>
</g>
</svg>
