<?xml version="1.0" encoding="utf-8"?>
<!-- Generator: Adobe Illustrator 26.0.2, SVG Export Plug-In . SVG Version: 6.00 Build 0)  -->
<svg version="1.1" id="Layer_1" xmlns="http://www.w3.org/2000/svg" xmlns:xlink="http://www.w3.org/1999/xlink" x="0px" y="0px"
	 viewBox="0 0 1244 1280" style="enable-background:new 0 0 1244 1280;" xml:space="preserve">
<path d="M1167.4,1101.1L808.7,742.4c63.9-79.9,97.1-181.7,91.8-282.8c-3.1-59.4-16.1-110.6-40.9-162c-16.5-34-33.1-59.9-57.7-89.6
	c-10.3-12.5-38.5-40.6-51-51C684,101.6,608.4,69.4,523.4,60c-16.9-1.8-58.2-2.6-74.4-1.3c-100.2,7.6-191.7,48.7-263.3,118.2
	C89.8,269.9,44,400.1,60.6,532.3c15.2,121.1,82.7,229.8,184.9,297.9c18.8,12.6,26.5,17,45.8,26.7c44,22.1,88.2,35.2,140.7,41.8
	c20.2,2.4,74.3,2.4,94.5,0c39.3-4.9,73.2-13.4,108.6-27.4c20.8-8.1,48.5-22.4,69.5-35.5c1.4,1.6,2.8,3.2,4.3,4.8l359.6,359.6
	c13.7,13.7,31.6,20.5,49.5,20.5s35.8-6.8,49.5-20.5C1194.8,1172.8,1194.8,1128.5,1167.4,1101.1z M335.9,778.2
	C241,732.4,173.6,645.4,153.5,542.5c-3.6-18.7-5-31.5-5.5-54c-0.6-25.1,0.4-41.2,4.1-63.4c15.7-94.6,72.3-178.3,154.6-228.7
	c44.1-27.1,91.1-42.3,147.2-47.7c2.1-0.2,16-0.3,30.7-0.1c21.1,0.3,29.6,0.8,40.4,2.4c75.7,11.5,141.5,45.1,193,98.7
	c50.2,52.2,80.7,116.3,90.6,190c2.3,18.1,2.3,60.2,0,78.9c-5.3,40.5-15.4,73.8-33.3,109.5c-28.9,57.8-75.9,107.2-132.4,139.5
	C549,821.1,433.2,825.1,335.9,778.2z"/>
</svg>
