<?xml version="1.0" encoding="utf-8"?>
<!-- Generator: Adobe Illustrator 26.0.3, SVG Export Plug-In . SVG Version: 6.00 Build 0)  -->
<svg version="1.1" id="Layer_1" xmlns="http://www.w3.org/2000/svg" xmlns:xlink="http://www.w3.org/1999/xlink" x="0px" y="0px"
	 viewBox="0 0 896.22 149.9" style="enable-background:new 0 0 896.22 149.9;" xml:space="preserve">
<style type="text/css">
	.st0{fill:#ED732E;}
	.st1{fill:#19282D;}
	.st2{fill:#F09536;}
	.st3{fill:#999999;}
</style>
<g>
	<polygon class="st0" points="536.92,149.9 592.58,99.96 579.77,96.48 547.77,116.92 515.36,149.9 	"/>
	<polygon class="st0" points="246.28,0 297.39,0 486.33,82.46 491.8,89.44 489.08,92.42 	"/>
	<polygon class="st0" points="406.89,0 437.04,0 507.78,43.91 530.2,68.96 524.18,70.54 522.55,68.96 	"/>
	<polygon class="st0" points="527.14,0 541.03,0 552.16,17.86 549.34,20.48 527.62,8.57 522.37,5.94 	"/>
	<polygon class="st0" points="896.22,149.9 622.96,23.54 620.62,27.5 634.82,37.08 639.09,38.41 832.65,149.9 	"/>
	<path class="st1" d="M575.53,74.1l-25.74-6.46l-2.66,1.72l-15.31,12.19l-29.63,8.18l-6.51,0.54l-1.62,3.21c0,0-0.37,1.95-0.35,3.32
		c0.02,1.38,0.07,3.26-1.72,3.48s-3.05-4.95-2.89-7.85c0.15-2.9,0.29-6.8,0.29-6.8l3.9-6.62l32.8-11.28l10.48-9.9
		c0,0,5.38-5.62,6.52-8.61c1.14-2.99,4.74-6.48,8.01-11.4s10.25-17.04,10.25-17.04s-1.8-1.34-2.53-0.81
		c-0.74,0.53-3.01,3.14-3.01,3.14l-5.16,3.68l-3.43,6.53l-2.69,3.38l-1.59-0.94l-4.52-4.12l-1.34-1.2l2.63-2.77l10.67-12.57
		c0,0,2.61-4.44,8.48-3.8s13.45,0.69,15.1,0.9c1.65,0.21,5.51,4.11,7.82,5.05c2.3,0.93,3.41,1.6,4.46,0.31
		c1.05-1.29-0.84-4.84,0.27-8.99s2.2-5.32,4.53-5.8s5.55,0.45,6.17,3.12s-0.47,9.74-3.23,12.51s-4.03,2.12-4.89,2.1
		c-0.86-0.02-0.41,2.81,0.55,3.72c0.96,0.91,1.38,2.33,5.3,3.55s8.03,3.78,9.12,3.3s4.21-2.61,4.21-2.61l5.44-2.87l3.18-3.53
		l5.14-3.78c0,0,0.73,0.13,2.84,3.13c2.1,3.01,2.82,4.41,2.82,4.41l-4.69,3.26l-8.01,5.78l-8.35,5.82c0,0-10.52-1.73-13.01-3.54
		c-2.49-1.81-5.3-0.64-5.3-0.64s-1.04,5.43-5.29,11.31c-4.26,5.88-9.53,10.84-9.53,10.84l13.56,7.09l5.54,19.66l-0.52,9.36l3.75,3
		c0,0,0.13,5.39,2.98,6.81c2.85,1.42,3.17,1.82,4.87,1.21s3.52,1.16,3.04,2.37c-0.48,1.22-6.51,2.5-11.34,2.5
		c-4.83,0-9.15-0.21-9.15-0.21l-0.68-6.14l-3.05,0.27L575.53,74.1z"/>
	<polygon class="st2" points="595.81,97.73 490.69,149.9 467.66,149.9 426.26,149.9 592.57,85.37 	"/>
	<path class="st2" d="M396.31,0h34.74l71.13,89.72c0,0-4.45,1.11-5.55,1.81s-2.59,1.94-2.59,1.94L396.31,0z"/>
	<polygon class="st2" points="461.25,0 485.47,0 547.13,69.35 536.73,77.62 	"/>
	<polygon class="st2" points="503.86,0 530.75,0 555.78,23.11 547.19,33.32 	"/>
	<polygon class="st2" points="777.68,149.9 616.86,22.05 608.23,28.44 730.17,149.9 	"/>
</g>
<g>
	<g>
		<g>
			<path class="st3" d="M47.3,60.06H25.33v9.04h24.51l-1.58,10.47H11.74V31.36h36.49v10.47H25.33v7.76H47.3V60.06z"/>
			<path class="st3" d="M56.4,31.36h20.71c15.35,0,24.25,9.71,24.25,23.58c0,13.9-8.67,24.64-24.47,24.64H56.4V31.36z M70.54,69.34
				h5.41c7.67,0,10.81-5.38,10.81-14.41c0-7.98-2.93-13.34-10.64-13.34h-5.58V69.34z"/>
			<path class="st3" d="M123.34,31.36v48.21h-14.17V31.36H123.34z"/>
			<path class="st3" d="M142.94,41.83h-13.78V31.36h41.59v10.47h-13.66v37.74h-14.14V41.83z"/>
			<path class="st3" d="M192.05,31.36h22.34c10.87,0,18.19,6.05,18.19,15.47c0,10.83-8.31,15.82-18.52,15.82H206v16.93h-13.95V31.36
				z M206,52.69h5.76c3.99,0,6.83-1.66,6.83-5.69c0-4.12-2.86-5.73-6.79-5.73H206V52.69z"/>
			<path class="st3" d="M253.72,61.35v18.22H240V31.36h23.89c11.35,0,16.85,6.08,16.85,13.35c0,6.66-3.89,10.06-7.24,11.44
				c3.04,1.06,6.29,4.28,6.29,12.44v2.01c0,3,0.09,6.89,0.63,8.98h-13.46c-0.82-2.08-1.03-5.57-1.03-10.53V67.8
				c0-4.16-0.99-6.45-7.23-6.45H253.72z M253.72,51.51h6.54c4.71,0,6.42-1.96,6.42-5.2c0-3.22-2.04-5.11-6.35-5.11h-6.6V51.51z"/>
			<path class="st3" d="M334.99,55.42c0,13.64-8.22,25.05-24.73,25.05c-16.22,0-24.05-11.34-24.05-24.98
				c0-13.87,8.6-25.03,24.78-25.03C326.18,30.46,334.99,41,334.99,55.42z M300.78,55.28c0,8.85,2.94,15.01,9.93,15.01
				c7.35,0,9.77-6.54,9.77-14.75c0-8.8-2.57-14.9-9.95-14.9C303.66,40.64,300.78,46.3,300.78,55.28z"/>
			<path class="st3" d="M342.76,31.36h36.05v10.47H356.6v9.37h20.79v10.52H356.6v17.85h-13.84V31.36z"/>
			<path class="st3" d="M399.56,31.36v48.21h-14.17V31.36H399.56z"/>
			<path class="st3" d="M409.54,31.36h14.17V69.1h22.72l-1.53,10.47h-35.36V31.36z"/>
			<path class="st3" d="M487.73,60.06h-21.96v9.04h24.51l-1.58,10.47h-36.54V31.36h36.49v10.47h-22.89v7.76h21.96V60.06z"/>
		</g>
	</g>
</g>
</svg>
