<?xml version="1.0" encoding="utf-8"?>
<!-- Generator: Adobe Illustrator 26.0.3, SVG Export Plug-In . SVG Version: 6.00 Build 0)  -->
<svg version="1.1" id="Layer_1" xmlns="http://www.w3.org/2000/svg" xmlns:xlink="http://www.w3.org/1999/xlink" x="0px" y="0px"
	 viewBox="0 0 2000 1500.57" style="enable-background:new 0 0 2000 1500.57;" xml:space="preserve">
<style type="text/css">
	.st0{fill:#ED732F;}
	.st1{fill:#19292E;}
	.st2{fill:#F09636;}
</style>
<g>
	<polygon class="st0" points="0,1500.57 1137.49,684.25 1095.27,672.79 989.73,740.19 0,1441.81 	"/>
	<polygon class="st0" points="0,553.21 0,411.49 787.11,626.54 805.14,649.58 796.18,659.39 	"/>
	<polygon class="st0" points="0,153.27 -3.11,95.33 857.83,499.43 931.78,582.01 911.91,587.23 906.55,582.01 	"/>
	<polygon class="st0" points="658.59,0 746.63,0 1004.21,413.51 994.91,422.13 904.79,333.71 893.47,317.52 	"/>
	<polygon class="st0" points="2000,597.15 1237.69,432.23 1229.98,445.28 1276.79,476.9 1290.87,481.27 2000,661.19 	"/>
	<path class="st1" d="M1081.28,598.96l-84.88-21.32l-8.78,5.68l-50.49,40.19L839.4,650.5l-21.47,1.77l-5.36,10.6
		c0,0-1.24,6.42-1.16,10.96c0.07,4.54,0.21,10.76-5.68,11.47c-5.9,0.71-10.04-16.34-9.54-25.9c0.5-9.57,0.96-22.41,0.96-22.41
		l12.86-21.82l108.16-37.21l34.55-32.64c0,0,17.73-18.55,21.49-28.4c3.75-9.85,15.64-21.38,26.42-37.61s33.81-56.19,33.81-56.19
		s-5.93-4.42-8.36-2.67c-2.42,1.75-9.92,10.37-9.92,10.37l-17.01,12.14l-11.32,21.54l-8.87,11.13l-5.25-3.11l-14.92-13.59
		l-4.42-3.96l8.67-9.14l35.18-41.47c0,0,8.61-14.64,27.95-12.53c19.34,2.1,44.37,2.29,49.81,2.98c5.44,0.69,18.18,13.57,25.78,16.65
		s11.25,5.28,14.7,1.03c3.45-4.25-2.78-15.97,0.9-29.64c3.68-13.66,7.27-17.54,14.96-19.14s18.29,1.49,20.34,10.28
		c2.06,8.78-1.56,32.11-10.64,41.25c-9.09,9.13-13.29,7-16.14,6.93s-1.35,9.28,1.82,12.28c3.17,3,4.57,7.68,17.49,11.71
		c12.92,4.03,26.47,12.46,30.06,10.87c3.6-1.59,13.89-8.59,13.89-8.59l17.93-9.45l10.5-11.63l16.95-12.48c0,0,2.42,0.41,9.35,10.33
		c6.93,9.92,9.31,14.53,9.31,14.53l-15.48,10.74l-26.42,19.05l-27.54,19.18c0,0-34.68-5.71-42.89-11.68s-17.46-2.1-17.46-2.1
		s-3.42,17.91-17.46,37.29c-14.03,19.39-31.44,35.75-31.44,35.75l44.72,23.39l18.27,64.83l-1.7,30.86l12.37,9.9
		c0,0,0.43,17.78,9.83,22.47c9.4,4.69,10.46,6.01,16.05,3.99s11.62,3.81,10.02,7.83c-1.6,4.02-21.46,8.25-37.4,8.24
		c-15.94-0.01-30.19-0.7-30.19-0.7l-2.24-20.25l-10.07,0.88L1081.28,598.96z"/>
	<polygon class="st2" points="342.54,0 435.47,0 987.62,583.32 953.3,610.59 	"/>
	<polygon class="st2" points="1148.14,676.92 0,1124.43 0,1006.28 1137.47,636.16 	"/>
	<g>
		<g>
			<path class="st1" d="M426.17,177.02c1.49,7.79,6.94,11.06,15.39,11.06c7.92,0,11.57-2.77,11.57-7.96
				c0-5.87-3.96-8.09-18.07-11.47c-26.35-6.38-31.6-16-31.6-28.03c0-14.99,11.01-27.54,35.88-27.54c25.85,0,36.4,13.11,37.65,27.2
				h-25.29c-0.69-4.79-3.14-9.67-12.43-9.67c-5.99,0-9.68,2.26-9.68,7.1c0,4.84,3.27,6.72,17.05,10.1
				c27.53,6.87,32.99,16.79,32.99,29.49c0,16.78-12.94,28.43-39.16,28.43c-24.7,0-37.79-11.53-39.77-28.71H426.17z"/>
			<path class="st1" d="M511.01,134.15h-25.53v-19.4h77.05v19.4h-25.31v69.93h-26.2V134.15z"/>
			<path class="st1" d="M598.26,114.75v54.92c0,12.8,6.3,17.18,14.24,17.18c8.59,0,13.58-5.24,13.58-17.18v-54.92h26.3v52.28
				c0,29.68-17.56,38.7-40.32,38.7c-23.59,0-40-9.55-40-38.58v-52.41H598.26z"/>
			<path class="st1" d="M750.58,174.69c-3.27,18.68-16.98,31.04-41.49,31.04c-29.26,0-43.39-19.75-43.39-45.67
				c0-25.29,13.97-46.98,44.65-46.98c26.25,0,38.2,15.26,39.96,30.72h-25.98c-1.19-6.45-4.92-12.33-14.59-12.33
				c-12.72,0-17.06,12.08-17.06,27.67c0,14.16,3.61,28.15,17.35,28.15c10.41,0,13.32-7.56,14.43-12.61H750.58z"/>
			<path class="st1" d="M763.99,114.75h25.99v36.27c5.84-8.15,19.03-24.5,27.85-36.27h31l-32.82,36.6l33.94,52.72h-30.67
				l-21.39-35.83l-7.9,8.14v27.68h-25.99V114.75z"/>
			<path class="st1" d="M971.88,159.34c0,25.27-15.22,46.4-45.81,46.4c-30.04,0-44.56-21-44.56-46.28
				c0-25.71,15.93-46.37,45.91-46.37C955.56,113.09,971.88,132.61,971.88,159.34z M908.49,159.07c0,16.4,5.45,27.81,18.4,27.81
				c13.61,0,18.09-12.11,18.09-27.33c0-16.3-4.76-27.6-18.44-27.6C913.83,131.95,908.49,142.44,908.49,159.07z"/>
			<path class="st1" d="M1006.76,204.08l-30.57-89.32h27.81l11.03,38.37c3.48,11.91,5.52,20.17,7.55,30.14h0.4
				c1.72-9.24,4.02-17.53,7.71-29.88l11.4-38.63h26.82l-31.26,89.32H1006.76z"/>
			<path class="st1" d="M1143.2,167.93h-40.69v16.75h45.42l-2.92,19.4h-67.69v-89.32h67.6v19.4h-42.41v14.38h40.69V167.93z"/>
			<path class="st1" d="M1185.48,170.33v33.75h-25.41v-89.32h44.26c21.04,0,31.21,11.26,31.21,24.73c0,12.34-7.21,18.65-13.41,21.19
				c5.63,1.97,11.64,7.92,11.64,23.05v3.72c0,5.56,0.18,12.76,1.16,16.63H1210c-1.51-3.85-1.9-10.32-1.9-19.5v-2.31
				c0-7.71-1.84-11.94-13.39-11.94H1185.48z M1185.48,152.08h12.11c8.72,0,11.89-3.62,11.89-9.63c0-5.97-3.77-9.46-11.77-9.46
				h-12.23V152.08z"/>
			<path class="st1" d="M1249.69,114.75h66.79v19.4h-41.15v17.36h38.52V171h-38.52v33.07h-25.64V114.75z"/>
			<path class="st1" d="M1328.67,114.75h26.25v69.93h42.1l-2.83,19.4h-65.52V114.75z"/>
			<path class="st1" d="M1494.02,159.34c0,25.27-15.22,46.4-45.82,46.4c-30.04,0-44.56-21-44.56-46.28
				c0-25.71,15.92-46.37,45.91-46.37C1477.7,113.09,1494.02,132.61,1494.02,159.34z M1430.63,159.07c0,16.4,5.45,27.81,18.4,27.81
				c13.61,0,18.09-12.11,18.09-27.33c0-16.3-4.76-27.6-18.44-27.6C1435.97,131.95,1430.63,142.44,1430.63,159.07z"/>
			<path class="st1" d="M1522.01,204.08l-21.53-89.32h27.54c6.05,34.1,8.1,48.98,9.15,63.17h0.4c3.68-19.38,9.09-42.26,13.65-63.17
				h23.28c4,18.07,9.93,42.9,13.04,62.09h0.4c2.21-18.53,8.07-48.33,10.29-62.09h25.15l-22.6,89.32h-26.76
				c-3.95-18.54-9.13-39.62-12.41-56.96h-0.31c-3.1,16.88-8.68,39.72-12.53,56.96H1522.01z"/>
		</g>
	</g>
	<path class="st2" d="M127.98-0.49l145.37,0.76L839.4,650.5c0,0-14.66,3.66-18.3,5.97s-8.53,6.4-8.53,6.4L127.98-0.49z"/>
	<polygon class="st2" points="516.64,0 618.52,-0.49 1016.14,430.8 987.81,464.48 	"/>
	<polygon class="st2" points="2000,1025.48 1217.56,427.32 1189.12,448.4 2000,1210.25 	"/>
</g>
</svg>
