<?xml version="1.0" encoding="utf-8"?>
<!-- Generator: Adobe Illustrator 26.0.3, SVG Export Plug-In . SVG Version: 6.00 Build 0)  -->
<svg version="1.1" id="Layer_1" xmlns="http://www.w3.org/2000/svg" xmlns:xlink="http://www.w3.org/1999/xlink" x="0px" y="0px"
	 viewBox="0 0 310.5 50.2" style="enable-background:new 0 0 310.5 50.2;" xml:space="preserve">
<style type="text/css">
	.st0{fill:#999999;}
</style>
<g>
	<g>
		<g>
			<path class="st0" d="M44.6,23.7c0,9.7-5.9,17.9-17.7,17.9c-11.6,0-17.2-8.1-17.2-17.8c0-9.9,6.1-17.9,17.7-17.9
				C38.3,5.9,44.6,13.4,44.6,23.7z M20.2,23.6c0,6.3,2.1,10.7,7.1,10.7c5.3,0,7-4.7,7-10.5c0-6.3-1.8-10.6-7.1-10.6
				C22.2,13.1,20.2,17.2,20.2,23.6z M37.6,35.4l9.2,6.2l-5.2,6l-12.1-8.2L37.6,35.4z"/>
			<path class="st0" d="M59.8,6.5v21.2c0,4.9,2.4,6.6,5.5,6.6c3.3,0,5.2-2,5.2-6.6V6.5h10.1v20.2c0,11.4-6.8,14.9-15.5,14.9
				c-9.1,0-15.4-3.7-15.4-14.9V6.5H59.8z"/>
			<path class="st0" d="M112.8,27H97.1v6.5h17.5l-1.1,7.5H87.4V6.5h26.1V14H97.1v5.5h15.7V27z"/>
			<path class="st0" d="M126.8,30.5c0.6,3,2.7,4.3,5.9,4.3c3.1,0,4.5-1.1,4.5-3.1c0-2.3-1.5-3.1-7-4.4c-10.2-2.5-12.2-6.2-12.2-10.8
				c0-5.8,4.2-10.6,13.8-10.6c10,0,14,5.1,14.5,10.5h-9.8c-0.3-1.9-1.2-3.7-4.8-3.7c-2.3,0-3.7,0.9-3.7,2.7s1.3,2.6,6.6,3.9
				c10.6,2.6,12.7,6.5,12.7,11.4c0,6.5-5,11-15.1,11c-9.5,0-14.6-4.5-15.3-11.1C117,30.5,126.8,30.5,126.8,30.5z"/>
			<path class="st0" d="M285,30.5c0.6,3,2.7,4.3,5.9,4.3c3.1,0,4.5-1.1,4.5-3.1c0-2.3-1.5-3.1-7-4.4c-10.2-2.5-12.2-6.2-12.2-10.8
				c0-5.8,4.2-10.6,13.8-10.6c10,0,14,5.1,14.5,10.5h-9.8c-0.3-1.9-1.2-3.7-4.8-3.7c-2.3,0-3.7,0.9-3.7,2.7s1.3,2.6,6.6,3.9
				c10.6,2.6,12.7,6.5,12.7,11.4c0,6.5-5,11-15.1,11c-9.5,0-14.6-4.5-15.3-11.1C275.1,30.5,285,30.5,285,30.5z"/>
			<path class="st0" d="M159.5,14h-9.8V6.5h29.7V14h-9.8v27h-10.1L159.5,14L159.5,14z"/>
			<path class="st0" d="M193.6,6.5v34.4h-10.1V6.5H193.6z"/>
			<path class="st0" d="M234.1,23.7c0,9.7-5.9,17.9-17.7,17.9c-11.6,0-17.2-8.1-17.2-17.8c0-9.9,6.1-17.9,17.7-17.9
				C227.8,5.9,234.1,13.4,234.1,23.7z M209.6,23.6c0,6.3,2.1,10.7,7.1,10.7c5.2,0,7-4.7,7-10.5c0-6.3-1.8-10.6-7.1-10.6
				C211.7,13.1,209.6,17.2,209.6,23.6z"/>
			<path class="st0" d="M239.6,41V6.5h12.1c3.6,7.8,8.9,18.2,10.3,22.5h0.2c-0.4-3.6-0.5-9.7-0.5-15.1V6.5h9.2v34.4h-11.5
				c-2.9-6.2-9.1-19.2-10.8-23.7h-0.1c0.3,3.2,0.4,9.9,0.4,16v7.7C248.8,40.9,239.6,40.9,239.6,41z"/>
		</g>
	</g>
</g>
</svg>
