<?xml version="1.0" encoding="utf-8"?>
<!-- Generator: Adobe Illustrator 26.0.3, SVG Export Plug-In . SVG Version: 6.00 Build 0)  -->
<svg version="1.1" id="Layer_1" xmlns="http://www.w3.org/2000/svg" xmlns:xlink="http://www.w3.org/1999/xlink" x="0px" y="0px"
	 viewBox="0 0 761.58 149.9" style="enable-background:new 0 0 761.58 149.9;" xml:space="preserve">
<style type="text/css">
	.st0{fill:#ED732E;}
	.st1{fill:#19282D;}
	.st2{fill:#F09536;}
	.st3{fill:#999999;}
</style>
<g>
	<polygon class="st0" points="402.28,149.9 457.93,99.96 445.13,96.48 413.13,116.92 380.71,149.9 	"/>
	<polygon class="st0" points="111.63,0 162.75,0 351.69,82.46 357.16,89.44 354.44,92.42 	"/>
	<polygon class="st0" points="272.25,0 302.4,0 373.13,43.91 395.56,68.96 389.53,70.54 387.91,68.96 	"/>
	<polygon class="st0" points="392.5,0 406.39,0 417.52,17.86 414.7,20.48 392.98,8.57 387.72,5.94 	"/>
	<polygon class="st0" points="761.58,149.9 488.32,23.54 485.98,27.5 500.18,37.08 504.44,38.41 698,149.9 	"/>
	<path class="st1" d="M440.89,74.1l-25.74-6.46l-2.66,1.72l-15.31,12.19l-29.63,8.18l-6.51,0.54l-1.62,3.21c0,0-0.37,1.95-0.35,3.32
		c0.02,1.38,0.07,3.26-1.72,3.48s-3.05-4.95-2.89-7.85c0.15-2.9,0.29-6.8,0.29-6.8l3.9-6.62l32.8-11.28l10.48-9.9
		c0,0,5.38-5.62,6.52-8.61c1.14-2.99,4.74-6.48,8.01-11.4c3.27-4.92,10.25-17.04,10.25-17.04s-1.8-1.34-2.53-0.81
		c-0.74,0.53-3.01,3.14-3.01,3.14l-5.16,3.68l-3.43,6.53l-2.69,3.38l-1.59-0.94l-4.52-4.12l-1.34-1.2l2.63-2.77l10.67-12.57
		c0,0,2.61-4.44,8.48-3.8c5.87,0.64,13.45,0.69,15.1,0.9c1.65,0.21,5.51,4.11,7.82,5.05s3.41,1.6,4.46,0.31
		c1.05-1.29-0.84-4.84,0.27-8.99c1.12-4.14,2.2-5.32,4.53-5.8s5.55,0.45,6.17,3.12c0.62,2.66-0.47,9.74-3.23,12.51
		c-2.76,2.77-4.03,2.12-4.89,2.1c-0.86-0.02-0.41,2.81,0.55,3.72c0.96,0.91,1.38,2.33,5.3,3.55c3.92,1.22,8.03,3.78,9.12,3.3
		s4.21-2.61,4.21-2.61l5.44-2.87l3.18-3.53l5.14-3.78c0,0,0.73,0.13,2.84,3.13c2.1,3.01,2.82,4.41,2.82,4.41l-4.69,3.26l-8.01,5.78
		l-8.35,5.82c0,0-10.52-1.73-13.01-3.54c-2.49-1.81-5.3-0.64-5.3-0.64s-1.04,5.43-5.29,11.31c-4.26,5.88-9.53,10.84-9.53,10.84
		l13.56,7.09l5.54,19.66l-0.52,9.36l3.75,3c0,0,0.13,5.39,2.98,6.81c2.85,1.42,3.17,1.82,4.87,1.21s3.52,1.16,3.04,2.37
		c-0.48,1.22-6.51,2.5-11.34,2.5c-4.83,0-9.15-0.21-9.15-0.21l-0.68-6.14l-3.05,0.27L440.89,74.1z"/>
	<polygon class="st2" points="461.16,97.73 356.05,149.9 333.02,149.9 291.61,149.9 457.93,85.37 	"/>
	<path class="st2" d="M261.67,0h34.74l71.13,89.72c0,0-4.45,1.11-5.55,1.81s-2.59,1.94-2.59,1.94L261.67,0z"/>
	<polygon class="st2" points="326.61,0 350.82,0 412.49,69.35 402.08,77.62 	"/>
	<polygon class="st2" points="369.22,0 396.11,0 421.14,23.11 412.55,33.32 	"/>
	<polygon class="st2" points="643.04,149.9 482.21,22.05 473.59,28.44 595.53,149.9 	"/>
</g>
<g>
	<g>
		<g>
			<path class="st3" d="M58.98,55.41c0,13.64-8.22,25.04-24.73,25.04c-16.22,0-24.05-11.33-24.05-24.98
				c0-13.87,8.6-25.03,24.78-25.03C50.17,30.45,58.98,40.99,58.98,55.41z M24.77,55.27c0,8.85,2.94,15.01,9.93,15.01
				c7.35,0,9.77-6.54,9.77-14.75c0-8.8-2.57-14.9-9.95-14.9C27.65,40.63,24.77,46.29,24.77,55.27z M49.21,71.84l12.94,8.72
				l-7.27,8.47L37.97,77.5L49.21,71.84z"/>
			<path class="st3" d="M80.27,31.34v29.64c0,6.91,3.4,9.27,7.68,9.27c4.64,0,7.33-2.83,7.33-9.27V31.34h14.19v28.22
				c0,16.02-9.48,20.89-21.76,20.89c-12.73,0-21.59-5.16-21.59-20.82V31.34H80.27z"/>
			<path class="st3" d="M154.39,60.05h-21.96v9.04h24.51l-1.58,10.47h-36.54V31.34h36.49v10.47h-22.89v7.76h21.96V60.05z"/>
			<path class="st3" d="M174.08,64.96c0.8,4.2,3.75,5.97,8.31,5.97c4.27,0,6.24-1.5,6.24-4.29c0-3.17-2.14-4.37-9.75-6.19
				c-14.22-3.45-17.06-8.64-17.06-15.13c0-8.09,5.95-14.87,19.37-14.87c13.95,0,19.65,7.08,20.32,14.68h-13.65
				c-0.37-2.59-1.7-5.22-6.71-5.22c-3.24,0-5.22,1.22-5.22,3.83c0,2.61,1.77,3.63,9.2,5.45c14.86,3.71,17.81,9.06,17.81,15.92
				c0,9.06-6.98,15.35-21.14,15.35c-13.33,0-20.4-6.22-21.46-15.5H174.08z"/>
			<path class="st3" d="M219.86,41.81h-13.78V31.34h41.59v10.47h-13.66v37.74h-14.14V41.81z"/>
			<path class="st3" d="M267.61,31.34v48.21h-14.17V31.34H267.61z"/>
			<path class="st3" d="M324.21,55.41c0,13.64-8.22,25.04-24.73,25.04c-16.22,0-24.05-11.33-24.05-24.98
				c0-13.87,8.6-25.03,24.78-25.03C315.4,30.45,324.21,40.99,324.21,55.41z M289.99,55.27c0,8.85,2.94,15.01,9.93,15.01
				c7.35,0,9.77-6.54,9.77-14.75c0-8.8-2.57-14.9-9.95-14.9C292.87,40.63,289.99,46.29,289.99,55.27z"/>
			<path class="st3" d="M331.98,79.56V31.34h16.91c5.07,10.86,12.42,25.53,14.44,31.47h0.24c-0.54-5.01-0.66-13.52-0.66-21.21V31.34
				h12.88v48.21h-16.11c-4.09-8.73-12.81-26.82-15.08-33.18h-0.19c0.45,4.54,0.49,13.87,0.49,22.36v10.83H331.98z"/>
		</g>
	</g>
</g>
</svg>
