<?xml version="1.0" encoding="utf-8"?>
<!-- Generator: Adobe Illustrator 26.0.3, SVG Export Plug-In . SVG Version: 6.00 Build 0)  -->
<svg version="1.1" id="Layer_1" xmlns="http://www.w3.org/2000/svg" xmlns:xlink="http://www.w3.org/1999/xlink" x="0px" y="0px"
	 viewBox="0 0 282.84 50.19" style="enable-background:new 0 0 282.84 50.19;" xml:space="preserve">
<style type="text/css">
	.st0{fill:#999999;}
</style>
<g>
	<g>
		<g>
			<path class="st0" d="M44.61,23.7c0,9.74-5.87,17.89-17.66,17.89c-11.58,0-17.18-8.1-17.18-17.84c0-9.91,6.14-17.88,17.7-17.88
				C38.31,5.87,44.61,13.4,44.61,23.7z M20.17,23.6c0,6.32,2.1,10.72,7.09,10.72c5.25,0,6.98-4.67,6.98-10.54
				c0-6.28-1.84-10.64-7.11-10.64C22.23,13.14,20.17,17.19,20.17,23.6z M37.63,35.43l9.24,6.23l-5.2,6.05L29.6,39.48L37.63,35.43z"
				/>
			<path class="st0" d="M59.81,6.51v21.17c0,4.93,2.43,6.62,5.49,6.62c3.31,0,5.24-2.02,5.24-6.62V6.51h10.14v20.16
				c0,11.44-6.77,14.92-15.54,14.92c-9.09,0-15.42-3.68-15.42-14.87V6.51H59.81z"/>
			<path class="st0" d="M112.76,27.01H97.07v6.46h17.51l-1.12,7.48h-26.1V6.51h26.06v7.48H97.07v5.54h15.69V27.01z"/>
			<path class="st0" d="M126.82,30.52c0.57,3,2.68,4.26,5.93,4.26c3.05,0,4.46-1.07,4.46-3.07c0-2.26-1.53-3.12-6.97-4.42
				c-10.16-2.46-12.18-6.17-12.18-10.8c0-5.78,4.25-10.62,13.83-10.62c9.96,0,14.03,5.06,14.52,10.49h-9.75
				c-0.26-1.85-1.21-3.73-4.79-3.73c-2.31,0-3.73,0.87-3.73,2.74c0,1.87,1.26,2.59,6.57,3.89c10.61,2.65,12.72,6.47,12.72,11.37
				c0,6.47-4.99,10.96-15.1,10.96c-9.52,0-14.57-4.45-15.33-11.07H126.82z"/>
			<path class="st0" d="M159.52,13.99h-9.84V6.51h29.71v7.48h-9.76v26.96h-10.1V13.99z"/>
			<path class="st0" d="M193.63,6.51v34.44h-10.12V6.51H193.63z"/>
			<path class="st0" d="M234.05,23.7c0,9.74-5.87,17.89-17.66,17.89c-11.58,0-17.18-8.1-17.18-17.84c0-9.91,6.14-17.88,17.7-17.88
				C227.76,5.87,234.05,13.4,234.05,23.7z M209.62,23.6c0,6.32,2.1,10.72,7.09,10.72c5.25,0,6.98-4.67,6.98-10.54
				c0-6.28-1.84-10.64-7.11-10.64C211.67,13.14,209.62,17.19,209.62,23.6z"/>
			<path class="st0" d="M239.6,40.95V6.51h12.08c3.62,7.76,8.87,18.24,10.32,22.48h0.17c-0.38-3.58-0.47-9.66-0.47-15.15V6.51h9.2
				v34.44h-11.51c-2.92-6.23-9.15-19.16-10.77-23.7h-0.14c0.32,3.24,0.35,9.91,0.35,15.97v7.73H239.6z"/>
		</g>
	</g>
</g>
</svg>
