<?xml version="1.0" encoding="utf-8"?>
<!-- Generator: Adobe Illustrator 26.0.3, SVG Export Plug-In . SVG Version: 6.00 Build 0)  -->
<svg version="1.1" id="Layer_1" xmlns="http://www.w3.org/2000/svg" xmlns:xlink="http://www.w3.org/1999/xlink" x="0px" y="0px"
	 viewBox="0 0 734.95 85.09" style="enable-background:new 0 0 734.95 85.09;" xml:space="preserve">
<style type="text/css">
	.st0{fill:#ED732E;}
	.st1{fill:#F09536;}
	.st2{fill:#19282D;}
	.st3{fill:#999999;}
</style>
<path class="st0" d="M407.76,85.09c-1.53-2.64-3-5.52-4.19-6.52c-25.04-20.99-27.22-26.95-38.85-42.46s-19.72-22.83-19.72-22.83
	l-13.1,2.7c0,0,11.17,12.33,16.95,14.26c5.78,1.93,12.38,8.53,13.32,18.72c0.76,8.2,10.4,28.53,14.12,36.14L407.76,85.09z"/>
<path class="st1" d="M560.32,85.09c0,0,11.44,1.73,27.24-13.53c15.8-15.26,25.88-20.16,40.32-16.21s38.96,18.82,63.48,14.25
	s43.59,15.49,43.59,15.49h-27.22c0,0,4.33-12.71-15.28-11.08s-16.35,7.36-29.97,3s-23.97-18.08-37.6-13.53s-18.53,1-24.25,8.63
	s-27.52,12.99-27.52,12.99H560.32z"/>
<path class="st0" d="M688.5,85.09c-0.72-1.3-2.17-2.65-5.03-2.91c0,0-21.53-1.63-35.84-3c-14.3-1.36-26.29-0.45-38.01,2.72
	c-5.27,1.43-9,2.48-11.5,3.18H688.5z"/>
<path class="st2" d="M676.92,44.03c-2.73-5.65-6.08-5.65-6.08-5.65l-1.82-5.4c0,0,1.22-5.83-1.52-8.45
	c-2.73-2.61-5.4-2.18-7.35-0.48c-1.94,1.7-1.09,6.68-0.79,9.11c0.31,2.43,2.07,4.25,2.07,4.25l3.4-0.79v1.7l-2.19,0.79L649.4,45.8
	l-8.08,1.45c0,0-5.1,1.58-6.56,2.31c-1.46,0.73-1.22,2.8-1.28,4.62c-0.06,1.82,0.98,2.85,0.98,2.85s-0.92,1.71-0.98,2.86
	c-0.06,1.15,1.83,2.72,1.83,2.72l-6.57,12.22l0.73,0.79l-1.33,2.01c-0.61,0.61-6.5,2.73-7.96,3.1c-1.46,0.36-1.4,2.91-1.4,2.91
	l1.9,1.46l13.88,0l4.46,0c0,0,0.3-2.37,0.23-4.19c-0.06-1.82-1.03-4.31-1.03-4.31l8.66-10.57c0,0,5.61,12.46,7.74,15.55
	c1,1.45,2.08,2.61,3.2,3.52l21.34,0c0.46-4.82,1.65-17.32,1.89-23.02C681.35,54.97,679.65,49.68,676.92,44.03z M661.05,63.48
	l-5.42-8.12c0,0,2.71-0.85,4.61-1.53C660.02,58.65,661.05,63.48,661.05,63.48z"/>
<g>
	<g>
		<g>
			<path class="st3" d="M24.38,50.67l-2.79,9.38H7.83l15.24-48.21h18.29l15.84,48.21H42.44l-2.93-9.38H24.38z M37.03,40.2
				c-2.26-7.58-4.12-14.31-5.21-19.01h-0.19c-1.12,5.2-2.96,12.08-4.91,19.01H37.03z"/>
			<path class="st3" d="M62.53,60.05V11.84h16.91c5.07,10.86,12.42,25.53,14.44,31.47h0.24c-0.54-5.01-0.66-13.52-0.66-21.21V11.84
				h12.88v48.21H90.23c-4.09-8.73-12.81-26.82-15.08-33.18h-0.19c0.45,4.54,0.49,13.87,0.49,22.36v10.83H62.53z"/>
			<path class="st3" d="M126.87,45.45c0.8,4.2,3.75,5.97,8.31,5.97c4.27,0,6.24-1.5,6.24-4.29c0-3.17-2.14-4.37-9.75-6.19
				c-14.22-3.45-17.06-8.64-17.06-15.13c0-8.09,5.95-14.87,19.37-14.87c13.95,0,19.65,7.08,20.32,14.68h-13.65
				c-0.37-2.59-1.7-5.22-6.71-5.22c-3.24,0-5.22,1.22-5.22,3.83c0,2.61,1.77,3.63,9.2,5.45c14.86,3.71,17.81,9.06,17.81,15.92
				c0,9.06-6.98,15.35-21.14,15.35c-13.33,0-20.4-6.22-21.46-15.5H126.87z"/>
			<path class="st3" d="M170.38,60.05l-11.62-48.21h14.87c3.26,18.4,4.37,26.44,4.94,34.1h0.22c1.99-10.46,4.91-22.81,7.37-34.1
				h12.56c2.16,9.75,5.36,23.15,7.04,33.51h0.22c1.19-10,4.36-26.09,5.56-33.51h13.57l-12.2,48.21h-14.45
				c-2.13-10.01-4.93-21.38-6.7-30.74h-0.17c-1.67,9.11-4.68,21.44-6.76,30.74H170.38z"/>
			<path class="st3" d="M266.37,40.54H244.4v9.04h24.51l-1.58,10.47h-36.54V11.84h36.49v10.47H244.4v7.76h21.96V40.54z"/>
			<path class="st3" d="M289.18,41.83v18.22h-13.72V11.84h23.89c11.35,0,16.85,6.08,16.85,13.35c0,6.66-3.89,10.06-7.24,11.44
				c3.04,1.06,6.29,4.28,6.29,12.44v2.01c0,3,0.09,6.89,0.63,8.98h-13.46c-0.82-2.07-1.03-5.57-1.03-10.53v-1.24
				c0-4.16-0.99-6.45-7.23-6.45H289.18z M289.18,31.99h6.54c4.71,0,6.42-1.96,6.42-5.2c0-3.22-2.04-5.11-6.35-5.11h-6.6V31.99z"/>
			<path class="st3" d="M334.42,45.45c0.8,4.2,3.75,5.97,8.31,5.97c4.27,0,6.24-1.5,6.24-4.29c0-3.17-2.14-4.37-9.75-6.19
				c-14.22-3.45-17.06-8.64-17.06-15.13c0-8.09,5.95-14.87,19.37-14.87c13.95,0,19.65,7.08,20.32,14.68H348.2
				c-0.37-2.59-1.7-5.22-6.71-5.22c-3.24,0-5.22,1.22-5.22,3.83c0,2.61,1.77,3.63,9.2,5.45c14.86,3.71,17.81,9.06,17.81,15.92
				c0,9.06-6.98,15.35-21.14,15.35c-13.33,0-20.4-6.22-21.46-15.5H334.42z"/>
		</g>
	</g>
</g>
<path class="st1" d="M336.46,10.94c0,0,1,18.15,0,22.94c0,0,4.79-0.11,6.98,2.24c0,0-2.99-21.18-2.19-25.17
	C341.25,10.94,338.45,10.34,336.46,10.94z"/>
</svg>
