<?xml version="1.0" encoding="utf-8"?>
<!-- Generator: Adobe Illustrator 26.0.3, SVG Export Plug-In . SVG Version: 6.00 Build 0)  -->
<svg version="1.1" id="Layer_1" xmlns="http://www.w3.org/2000/svg" xmlns:xlink="http://www.w3.org/1999/xlink" x="0px" y="0px"
	 viewBox="0 0 1821.9 1159.9" style="enable-background:new 0 0 1821.9 1159.9;" xml:space="preserve">
<style type="text/css">
	.st0{fill:#ED732E;}
	.st1{fill:#19282D;}
	.st2{fill:#F09536;}
</style>
<g>
	<polygon class="st0" points="386.4,1159.9 1048.4,684.7 1006.2,673.3 900.7,740.7 309.4,1159.9 	"/>
	<polygon class="st0" points="0,565.6 0,436.3 698.1,627 716.1,650.1 707.1,659.9 	"/>
	<polygon class="st0" points="0,195.9 0,139.1 768.8,499.9 842.7,582.5 822.9,587.7 817.5,582.5 	"/>
	<polygon class="st0" points="569.5,0.5 657.6,0.5 915.2,414 905.9,422.6 815.7,334.2 804.4,318 	"/>
	<polygon class="st0" points="1821.9,578.4 1148.7,432.7 1140.9,445.8 1187.8,477.4 1201.8,481.8 1821.9,639.1 	"/>
	<path class="st1" d="M992.2,599.5l-84.9-21.3l-8.8,5.7L848.1,624l-97.7,27l-21.5,1.8l-5.4,10.6c0,0-1.2,6.4-1.2,11
		c0.1,4.5,0.2,10.8-5.7,11.5c-5.9,0.7-10-16.3-9.5-25.9c0.5-9.6,1-22.4,1-22.4l12.9-21.8l108.2-37.2l34.6-32.6
		c0,0,17.7-18.5,21.5-28.4c3.8-9.9,15.6-21.4,26.4-37.6s33.8-56.2,33.8-56.2s-5.9-4.4-8.4-2.7c-2.4,1.8-9.9,10.4-9.9,10.4l-17,12.1
		L898.8,465l-8.9,11.1l-5.3-3.1l-14.9-13.6l-4.4-4l8.7-9.1l35.2-41.5c0,0,8.6-14.6,27.9-12.5c19.3,2.1,44.4,2.3,49.8,3
		c5.4,0.7,18.2,13.6,25.8,16.6s11.2,5.3,14.7,1c3.5-4.3-2.8-16,0.9-29.6c3.7-13.7,7.3-17.5,15-19.1s18.3,1.5,20.3,10.3
		s-1.6,32.1-10.6,41.2c-9.1,9.1-13.3,7-16.1,6.9c-2.8-0.1-1.4,9.3,1.8,12.3c3.2,3,4.6,7.7,17.5,11.7c12.9,4,26.5,12.5,30.1,10.9
		c3.6-1.6,13.9-8.6,13.9-8.6l17.9-9.4l10.5-11.6l17-12.5c0,0,2.4,0.4,9.4,10.3c6.9,9.9,9.3,14.5,9.3,14.5l-15.5,10.7l-26.4,19
		l-27.5,19.2c0,0-34.7-5.7-42.9-11.7s-17.5-2.1-17.5-2.1s-3.4,17.9-17.5,37.3s-31.4,35.7-31.4,35.7l44.7,23.4l18.3,64.8l-1.7,30.9
		l12.4,9.9c0,0,0.4,17.8,9.8,22.5c9.4,4.7,10.5,6,16.1,4c5.6-2,11.6,3.8,10,7.8c-1.6,4-21.5,8.3-37.4,8.2s-30.2-0.7-30.2-0.7
		l-2.2-20.2l-10.1,0.9L992.2,599.5z"/>
	<polygon class="st2" points="253.5,0.5 346.4,0.5 898.6,583.8 864.3,611.1 	"/>
	<polygon class="st2" points="1059.1,677.4 0,1090.2 0,977.8 1048.4,636.6 	"/>
	<path class="st2" d="M38.9,0l145.4,0.8l566,650.2c0,0-14.7,3.7-18.3,6c-3.6,2.3-8.5,6.4-8.5,6.4L38.9,0z"/>
	<polygon class="st2" points="427.6,0.5 529.5,0 927.1,431.3 898.8,465 	"/>
	<polygon class="st2" points="1821.9,957.9 1128.5,427.8 1100.1,448.9 1821.9,1127.1 	"/>
</g>
</svg>
