<?xml version="1.0" encoding="utf-8"?>
<!-- Generator: Adobe Illustrator 26.0.3, SVG Export Plug-In . SVG Version: 6.00 Build 0)  -->
<svg version="1.1" id="Layer_1" xmlns="http://www.w3.org/2000/svg" xmlns:xlink="http://www.w3.org/1999/xlink" x="0px" y="0px"
	 viewBox="0 0 268.43 50.19" style="enable-background:new 0 0 268.43 50.19;" xml:space="preserve">
<style type="text/css">
	.st0{fill:#999999;}
</style>
<g>
	<g>
		<g>
			<path class="st0" d="M19.81,34.25l-1.99,6.7H7.99L18.87,6.51h13.06l11.31,34.44H32.71l-2.09-6.7H19.81z M28.85,26.77
				c-1.62-5.41-2.94-10.22-3.72-13.58h-0.14c-0.8,3.71-2.11,8.62-3.51,13.58H28.85z"/>
			<path class="st0" d="M47.06,40.95V6.51h12.08c3.62,7.76,8.87,18.24,10.32,22.48h0.17c-0.38-3.58-0.47-9.66-0.47-15.15V6.51h9.2
				v34.44H66.84c-2.92-6.23-9.15-19.16-10.77-23.7h-0.14c0.32,3.24,0.35,9.91,0.35,15.97v7.73H47.06z"/>
			<path class="st0" d="M93.02,30.52c0.57,3,2.68,4.26,5.93,4.26c3.05,0,4.46-1.07,4.46-3.07c0-2.26-1.53-3.12-6.97-4.42
				c-10.16-2.46-12.18-6.17-12.18-10.8c0-5.78,4.25-10.62,13.83-10.62c9.96,0,14.03,5.06,14.52,10.49h-9.75
				c-0.26-1.85-1.21-3.73-4.79-3.73c-2.31,0-3.73,0.87-3.73,2.74c0,1.87,1.26,2.59,6.57,3.89c10.61,2.65,12.72,6.47,12.72,11.37
				c0,6.47-4.99,10.96-15.1,10.96c-9.52,0-14.57-4.45-15.33-11.07H93.02z"/>
			<path class="st0" d="M124.1,40.95l-8.3-34.44h10.62c2.33,13.15,3.12,18.88,3.53,24.35h0.16c1.42-7.47,3.5-16.29,5.26-24.35h8.97
				c1.54,6.96,3.83,16.54,5.03,23.94h0.16c0.85-7.14,3.11-18.63,3.97-23.94h9.69l-8.71,34.44h-10.32
				c-1.52-7.15-3.52-15.27-4.78-21.96h-0.12c-1.2,6.51-3.35,15.31-4.83,21.96H124.1z"/>
			<path class="st0" d="M192.65,27.01h-15.69v6.46h17.51l-1.12,7.48h-26.1V6.51h26.06v7.48h-16.35v5.54h15.69V27.01z"/>
			<path class="st0" d="M208.95,27.94v13.01h-9.8V6.51h17.06c8.11,0,12.03,4.34,12.03,9.54c0,4.76-2.78,7.19-5.17,8.17
				c2.17,0.76,4.49,3.06,4.49,8.89v1.43c0,2.14,0.07,4.92,0.45,6.41h-9.62c-0.58-1.48-0.73-3.98-0.73-7.52v-0.89
				c0-2.97-0.71-4.6-5.16-4.6H208.95z M208.95,20.9h4.67c3.36,0,4.59-1.4,4.59-3.71c0-2.3-1.45-3.65-4.54-3.65h-4.72V20.9z"/>
			<path class="st0" d="M241.27,30.52c0.57,3,2.68,4.26,5.93,4.26c3.05,0,4.46-1.07,4.46-3.07c0-2.26-1.53-3.12-6.97-4.42
				c-10.16-2.46-12.18-6.17-12.18-10.8c0-5.78,4.25-10.62,13.83-10.62c9.96,0,14.03,5.06,14.52,10.49h-9.75
				c-0.26-1.85-1.21-3.73-4.79-3.73c-2.31,0-3.73,0.87-3.73,2.74c0,1.87,1.26,2.59,6.57,3.89c10.61,2.65,12.72,6.47,12.72,11.37
				c0,6.47-4.99,10.96-15.1,10.96c-9.52,0-14.57-4.45-15.33-11.07H241.27z"/>
		</g>
	</g>
</g>
</svg>
