<?xml version="1.0" encoding="utf-8"?>
<!-- Generator: Adobe Illustrator 26.0.3, SVG Export Plug-In . SVG Version: 6.00 Build 0)  -->
<svg version="1.1" id="Layer_1" xmlns="http://www.w3.org/2000/svg" xmlns:xlink="http://www.w3.org/1999/xlink" x="0px" y="0px"
	 viewBox="0 0 665.04 76.82" style="enable-background:new 0 0 665.04 76.82;" xml:space="preserve">
<style type="text/css">
	.st0{fill:#999999;}
</style>
<g>
	<g>
		<g>
			<path class="st0" d="M15.74,13.23h22.34c10.87,0,18.19,6.05,18.19,15.47c0,10.83-8.31,15.82-18.52,15.82h-8.06v16.93H15.74V13.23
				z M29.69,34.56h5.76c3.99,0,6.83-1.66,6.83-5.69c0-4.12-2.86-5.73-6.79-5.73h-5.8V34.56z"/>
			<path class="st0" d="M110.32,37.29c0,13.64-8.22,25.05-24.73,25.05c-16.22,0-24.05-11.34-24.05-24.98
				c0-13.87,8.6-25.03,24.78-25.03C101.51,12.33,110.32,22.87,110.32,37.29z M76.1,37.15c0,8.85,2.94,15.01,9.93,15.01
				c7.35,0,9.77-6.54,9.77-14.75c0-8.8-2.57-14.9-9.95-14.9C78.98,22.51,76.1,28.17,76.1,37.15z"/>
			<path class="st0" d="M128.67,46.84c0.8,4.2,3.75,5.97,8.31,5.97c4.27,0,6.24-1.5,6.24-4.3c0-3.17-2.14-4.37-9.75-6.19
				c-14.22-3.45-17.06-8.64-17.06-15.13c0-8.09,5.95-14.87,19.37-14.87c13.95,0,19.65,7.08,20.32,14.68h-13.65
				c-0.37-2.59-1.7-5.22-6.71-5.22c-3.24,0-5.22,1.22-5.22,3.83c0,2.61,1.77,3.63,9.2,5.45c14.86,3.71,17.81,9.06,17.81,15.92
				c0,9.06-6.98,15.35-21.14,15.35c-13.33,0-20.4-6.23-21.46-15.5H128.67z"/>
			<path class="st0" d="M174.46,23.7h-13.78V13.23h41.59V23.7H188.6v37.74h-14.14V23.7z"/>
			<path class="st0" d="M235.47,52.06l-2.79,9.38h-13.76l15.24-48.21h18.29l15.84,48.21h-14.75l-2.93-9.38H235.47z M248.13,41.59
				c-2.27-7.57-4.12-14.31-5.21-19.01h-0.19c-1.12,5.2-2.96,12.08-4.91,19.01H248.13z"/>
			<path class="st0" d="M335.78,37.29c0,13.64-8.22,25.05-24.73,25.05C294.84,62.34,287,51,287,37.36c0-13.87,8.6-25.03,24.78-25.03
				C326.97,12.33,335.78,22.87,335.78,37.29z M301.57,37.15c0,8.85,2.94,15.01,9.93,15.01c7.35,0,9.77-6.54,9.77-14.75
				c0-8.8-2.57-14.9-9.95-14.9C304.45,22.51,301.57,28.17,301.57,37.15z M326.01,53.72l12.94,8.72l-7.27,8.47l-16.91-11.54
				L326.01,53.72z"/>
			<path class="st0" d="M357.07,13.23v29.64c0,6.91,3.4,9.27,7.68,9.27c4.64,0,7.33-2.83,7.33-9.27V13.23h14.19v28.22
				c0,16.02-9.48,20.89-21.76,20.89c-12.73,0-21.59-5.16-21.59-20.82V13.23H357.07z"/>
			<path class="st0" d="M431.19,41.93h-21.96v9.04h24.51l-1.58,10.47h-36.54V13.23h36.49V23.7h-22.89v7.76h21.96V41.93z"/>
			<path class="st0" d="M450.88,46.84c0.8,4.2,3.75,5.97,8.31,5.97c4.27,0,6.24-1.5,6.24-4.3c0-3.17-2.14-4.37-9.75-6.19
				c-14.22-3.45-17.06-8.64-17.06-15.13c0-8.09,5.94-14.87,19.36-14.87c13.95,0,19.65,7.08,20.32,14.68h-13.65
				c-0.37-2.59-1.7-5.22-6.71-5.22c-3.24,0-5.22,1.22-5.22,3.83c0,2.61,1.77,3.63,9.2,5.45c14.86,3.71,17.81,9.06,17.81,15.92
				c0,9.06-6.98,15.35-21.14,15.35c-13.33,0-20.4-6.23-21.46-15.5H450.88z"/>
			<path class="st0" d="M496.66,23.7h-13.78V13.23h41.59V23.7h-13.66v37.74h-14.14V23.7z"/>
			<path class="st0" d="M544.41,13.23v48.21h-14.17V13.23H544.41z"/>
			<path class="st0" d="M601.01,37.29c0,13.64-8.22,25.05-24.73,25.05c-16.22,0-24.05-11.34-24.05-24.98
				c0-13.87,8.6-25.03,24.78-25.03C592.2,12.33,601.01,22.87,601.01,37.29z M566.79,37.15c0,8.85,2.94,15.01,9.93,15.01
				c7.35,0,9.77-6.54,9.77-14.75c0-8.8-2.57-14.9-9.95-14.9C569.67,22.51,566.79,28.17,566.79,37.15z"/>
			<path class="st0" d="M608.78,61.44V13.23h16.91c5.07,10.86,12.42,25.53,14.44,31.47h0.24c-0.54-5.01-0.66-13.52-0.66-21.21V13.23
				h12.88v48.21h-16.11c-4.09-8.73-12.81-26.82-15.08-33.18h-0.19c0.45,4.53,0.49,13.87,0.49,22.35v10.83H608.78z"/>
		</g>
	</g>
</g>
</svg>
