<?xml version="1.0" encoding="utf-8"?>
<!-- Generator: Adobe Illustrator 26.0.3, SVG Export Plug-In . SVG Version: 6.00 Build 0)  -->
<svg version="1.1" id="Layer_1" xmlns="http://www.w3.org/2000/svg" xmlns:xlink="http://www.w3.org/1999/xlink" x="0px" y="0px"
	 viewBox="0 0 898.67 184.6" style="enable-background:new 0 0 898.67 184.6;" xml:space="preserve">
<style type="text/css">
	.st0{fill:#ED732E;}
	.st1{fill:#19282D;}
	.st2{fill:#F09536;}
	.st3{fill:#999999;}
</style>
<g>
	<polygon class="st0" points="408.02,184.6 463.67,134.65 450.87,131.18 418.87,151.62 386.45,184.6 	"/>
	<polygon class="st0" points="26.21,0 88.98,0 357.43,117.16 362.9,124.14 360.18,127.12 	"/>
	<polygon class="st0" points="219.78,0 252.25,0 378.87,78.61 401.3,103.65 395.27,105.24 393.65,103.65 	"/>
	<polygon class="st0" points="375.13,0 390.5,0 423.26,52.56 420.44,55.18 393.11,28.36 389.68,23.45 	"/>
	<polygon class="st0" points="898.67,184.6 494.06,58.24 491.72,62.19 505.91,71.78 510.18,73.11 835.1,184.6 	"/>
	<path class="st1" d="M446.63,108.79l-25.74-6.46l-2.66,1.72l-15.31,12.19l-29.63,8.18l-6.51,0.54l-1.62,3.21
		c0,0-0.37,1.95-0.35,3.32s0.07,3.26-1.72,3.48s-3.05-4.95-2.89-7.85c0.15-2.9,0.29-6.8,0.29-6.8l3.9-6.62l32.8-11.28l10.48-9.9
		c0,0,5.38-5.62,6.52-8.61c1.14-2.99,4.74-6.48,8.01-11.4c3.27-4.92,10.25-17.04,10.25-17.04s-1.8-1.34-2.53-0.81
		c-0.74,0.53-3.01,3.14-3.01,3.14l-5.16,3.68l-3.43,6.53l-2.69,3.38L414,70.45l-4.52-4.12l-1.34-1.2l2.63-2.77l10.67-12.57
		c0,0,2.61-4.44,8.48-3.8c5.87,0.64,13.45,0.69,15.1,0.9s5.51,4.11,7.82,5.05c2.3,0.93,3.41,1.6,4.46,0.31
		c1.05-1.29-0.84-4.84,0.27-8.99c1.12-4.14,2.2-5.32,4.53-5.8c2.33-0.48,5.55,0.45,6.17,3.12s-0.47,9.74-3.23,12.51
		c-2.76,2.77-4.03,2.12-4.89,2.1c-0.86-0.02-0.41,2.81,0.55,3.72c0.96,0.91,1.38,2.33,5.3,3.55c3.92,1.22,8.03,3.78,9.12,3.3
		s4.21-2.61,4.21-2.61l5.44-2.87l3.18-3.53l5.14-3.78c0,0,0.73,0.13,2.84,3.13c2.1,3.01,2.82,4.41,2.82,4.41l-4.69,3.26l-8.01,5.78
		l-8.35,5.82c0,0-10.52-1.73-13.01-3.54s-5.3-0.64-5.3-0.64s-1.04,5.43-5.29,11.31c-4.26,5.88-9.53,10.84-9.53,10.84l13.56,7.09
		l5.54,19.66l-0.52,9.36l3.75,3c0,0,0.13,5.39,2.98,6.81s3.17,1.82,4.87,1.21s3.52,1.16,3.04,2.37c-0.48,1.22-6.51,2.5-11.34,2.5
		s-9.15-0.21-9.15-0.21l-0.68-6.14l-3.05,0.27L446.63,108.79z"/>
	<polygon class="st2" points="466.9,132.43 361.79,184.6 338.76,184.6 297.35,184.6 463.67,120.07 	"/>
	<path class="st2" d="M231.13,0h44.9l97.26,124.42c0,0-4.45,1.11-5.55,1.81s-2.59,1.94-2.59,1.94L231.13,0z"/>
	<polygon class="st2" points="298.6,0 325.71,0 418.23,104.05 407.82,112.32 	"/>
	<polygon class="st2" points="329.82,0 364.26,0 426.88,57.8 418.29,68.01 	"/>
	<polygon class="st2" points="648.78,184.6 487.95,56.75 479.33,63.14 601.27,184.6 	"/>
</g>
<g>
	<g>
		<g>
			<path class="st3" d="M388.76,90.11c0,13.64-8.22,25.04-24.73,25.04c-16.22,0-24.05-11.33-24.05-24.98
				c0-13.87,8.6-25.03,24.78-25.03C379.95,65.15,388.76,75.69,388.76,90.11z M354.55,89.96c0,8.85,2.94,15.01,9.93,15.01
				c7.35,0,9.77-6.54,9.77-14.75c0-8.8-2.57-14.9-9.95-14.9C357.43,75.33,354.55,80.99,354.55,89.96z M378.99,106.54l12.94,8.72
				l-7.27,8.47l-16.91-11.54L378.99,106.54z"/>
			<path class="st3" d="M410.05,66.04v29.64c0,6.91,3.4,9.27,7.68,9.27c4.64,0,7.33-2.83,7.33-9.27V66.04h14.19v28.22
				c0,16.02-9.48,20.89-21.76,20.89c-12.73,0-21.59-5.16-21.59-20.82V66.04H410.05z"/>
			<path class="st3" d="M484.17,94.75h-21.96v9.04h24.51l-1.58,10.47h-36.54V66.04h36.49v10.47h-22.89v7.76h21.96V94.75z"/>
			<path class="st3" d="M503.86,99.66c0.8,4.2,3.75,5.97,8.31,5.97c4.27,0,6.24-1.5,6.24-4.29c0-3.17-2.14-4.37-9.75-6.19
				c-14.22-3.45-17.06-8.64-17.06-15.13c0-8.09,5.95-14.87,19.37-14.87c13.95,0,19.65,7.08,20.32,14.68h-13.65
				c-0.37-2.59-1.7-5.22-6.71-5.22c-3.24,0-5.22,1.22-5.22,3.83c0,2.61,1.77,3.63,9.2,5.45c14.86,3.71,17.81,9.06,17.81,15.92
				c0,9.06-6.98,15.35-21.14,15.35c-13.33,0-20.4-6.22-21.46-15.5H503.86z"/>
			<path class="st3" d="M549.64,76.51h-13.78V66.04h41.59v10.47h-13.66v37.74h-14.14V76.51z"/>
			<path class="st3" d="M597.39,66.04v48.21h-14.17V66.04H597.39z"/>
			<path class="st3" d="M653.99,90.11c0,13.64-8.22,25.04-24.73,25.04c-16.22,0-24.05-11.33-24.05-24.98
				c0-13.87,8.6-25.03,24.78-25.03C645.18,65.15,653.99,75.69,653.99,90.11z M619.77,89.96c0,8.85,2.94,15.01,9.93,15.01
				c7.35,0,9.77-6.54,9.77-14.75c0-8.8-2.57-14.9-9.95-14.9C622.65,75.33,619.77,80.99,619.77,89.96z"/>
			<path class="st3" d="M661.76,114.26V66.04h16.91c5.07,10.86,12.42,25.53,14.44,31.47h0.24c-0.54-5.01-0.66-13.52-0.66-21.21
				V66.04h12.88v48.21h-16.11c-4.09-8.73-12.81-26.82-15.08-33.18h-0.19c0.45,4.54,0.49,13.87,0.49,22.36v10.83H661.76z"/>
			<path class="st3" d="M726.1,99.66c0.8,4.2,3.75,5.97,8.31,5.97c4.27,0,6.24-1.5,6.24-4.29c0-3.17-2.14-4.37-9.75-6.19
				c-14.22-3.45-17.06-8.64-17.06-15.13c0-8.09,5.95-14.87,19.37-14.87c13.95,0,19.65,7.08,20.32,14.68h-13.65
				c-0.37-2.59-1.7-5.22-6.71-5.22c-3.24,0-5.22,1.22-5.22,3.83c0,2.61,1.77,3.63,9.2,5.45c14.86,3.71,17.81,9.06,17.81,15.92
				c0,9.06-6.98,15.35-21.14,15.35c-13.33,0-20.4-6.22-21.46-15.5H726.1z"/>
		</g>
	</g>
</g>
</svg>
